<?xml version="1.0" encoding="UTF-8"?>
<svg version="1.1" xmlns="http://www.w3.org/2000/svg" width="500" height="500">
<path d="M0 0 C2.85006932 2.36148601 3.91791813 4.33785489 5.1875 7.8125 C5.67545553 14.03125737 4.20814497 19.34116227 2.54589844 25.26245117 C2.26160791 26.30261887 1.97731739 27.34278656 1.684412 28.41447449 C0.73029276 31.89717174 -0.23647849 35.37622955 -1.203125 38.85546875 C-1.89040739 41.35486474 -2.57685917 43.85448926 -3.26254272 46.35432434 C-4.74163533 51.7422461 -6.2269908 57.12840827 -7.71661377 62.51342773 C-10.08082674 71.06056085 -12.43280632 79.61103411 -14.78271484 88.16210938 C-15.58938751 91.09703174 -16.39613495 94.03193355 -17.20291138 96.96682739 C-17.40459958 97.70056646 -17.60628778 98.43430554 -17.81408775 99.19027913 C-19.26609107 104.47203532 -20.71986343 109.75330282 -22.17428589 115.03439331 C-28.09378975 136.53109356 -33.97668848 158.03758349 -39.8359375 179.55078125 C-40.24588619 181.0557739 -40.65583898 182.56076544 -41.0657959 184.06575584 C-44.24373548 195.73273205 -47.4199816 207.40016923 -50.59571838 219.06774521 C-51.54245524 222.54597801 -52.48931777 226.02417657 -53.43630695 229.50234067 C-53.80604095 230.86032757 -54.1757508 232.21832104 -54.54543591 233.57632124 C-57.42507674 244.15361319 -60.3185715 254.72707575 -63.21808624 265.2989378 C-64.82648215 271.17310378 -66.41437564 277.05184838 -67.96766853 282.94082642 C-68.77555655 285.99740176 -69.59666939 289.05031326 -70.42081833 292.10253906 C-70.93408121 294.02443737 -71.4276324 295.95156801 -71.92007446 297.87890625 C-73.67395639 304.32931961 -75.58869998 309.41482936 -80.8125 313.8125 C-83.15625 314.8203125 -83.15625 314.8203125 -85.3125 314.9375 C-86.0240625 315.00195312 -86.735625 315.06640625 -87.46875 315.1328125 C-98.49774415 313.62551663 -106.99553232 301.54732398 -114.51464844 294.16064453 C-116.51922213 292.19557774 -118.54290201 290.2544367 -120.58886719 288.33251953 C-134.08871808 275.6316905 -143.05210231 263.86912136 -148.79846191 245.88861084 C-150.13324536 241.83951062 -151.69716808 237.90078733 -153.28118896 233.94387817 C-154.79886757 230.15176452 -156.25852374 226.33838049 -157.72021484 222.52441406 C-158.45626173 220.61273217 -159.19891964 218.70358418 -159.94775391 216.796875 C-164.405401 205.43687896 -168.02608295 195.07797828 -168.8125 182.8125 C-168.96638184 181.90773926 -169.12026367 181.00297852 -169.27880859 180.07080078 C-169.80394431 175.80876923 -169.39550474 173.64689758 -166.90332031 170.08007812 C-164.67173915 167.59143384 -162.40178317 165.26681516 -159.96240234 162.98828125 C-158.45122291 161.5753309 -156.98020087 160.1290194 -155.51171875 158.671875 C-141.32469106 144.81935792 -141.32469106 144.81935792 -132 144.1875 C-127.81587008 144.53372202 -125.60093269 145.54605028 -122.8125 148.8125 C-119.36902171 155.44444438 -116.98637574 162.60583219 -114.484375 169.62890625 C-113.89357147 171.27450783 -113.89357147 171.27450783 -113.29083252 172.95335388 C-112.04486596 176.4261026 -110.80361168 179.90051364 -109.5625 183.375 C-108.71385355 185.74295034 -107.86489832 188.11079004 -107.015625 190.47851562 C-104.94434397 196.2552357 -102.87691968 202.03332458 -100.8125 207.8125 C-97.28868313 205.26645403 -97.28868313 205.26645403 -94.8125 201.8125 C-94.87654554 199.80962128 -95.01329319 197.80881585 -95.1875 195.8125 C-95.27644531 194.64332031 -95.36539063 193.47414063 -95.45703125 192.26953125 C-95.74490933 188.90590022 -95.74490933 188.90590022 -96.38671875 186.01171875 C-96.89106278 183.41737304 -97.19898459 181.432506 -96.8125 178.8125 C-95.00358205 176.4163267 -93.03700927 174.59427759 -90.76171875 172.640625 C-88.28315279 170.31603809 -87.4729168 168.11458402 -86.8125 164.8125 C-90.53797711 166.02544604 -94.18227984 167.34062198 -97.8125 168.8125 C-102.00006447 151.81576532 -102.00006447 151.81576532 -99.265625 147.203125 C-97.0625 145.5 -97.0625 145.5 -94.765625 144.1015625 C-92.42346254 142.85833355 -92.42346254 142.85833355 -91.8125 139.375 C-91.8125 138.529375 -91.8125 137.68375 -91.8125 136.8125 C-95.19707255 137.41688796 -97.1125178 138.74251365 -99.8125 140.8125 C-100.4725 140.8125 -101.1325 140.8125 -101.8125 140.8125 C-102.32253854 137.64736722 -102.81865957 134.48019716 -103.3125 131.3125 C-103.45558594 130.425625 -103.59867188 129.53875 -103.74609375 128.625 C-105.91629098 114.57038934 -105.91629098 114.57038934 -103.125 110.125 C-102.361875 109.361875 -101.59875 108.59875 -100.8125 107.8125 C-99.57886719 106.5440625 -99.57886719 106.5440625 -98.3203125 105.25 C-96.77518808 103.74819682 -95.22862325 102.24787193 -93.6796875 100.75 C-84.57608324 92.06154311 -84.57608324 92.06154311 -79.8125 80.75 C-79.8125 79.780625 -79.8125 78.81125 -79.8125 77.8125 C-80.90689176 76.50229239 -80.90689176 76.50229239 -83.59765625 76.5859375 C-94.66282041 77.36574251 -106.77453094 92.33838167 -114.0234375 100.21484375 C-116.50709956 102.43278651 -118.67609315 102.229004 -121.8984375 102.078125 C-125.6663925 101.7346653 -129.42831825 101.36709666 -133.1875 100.9375 C-133.8897168 100.85935059 -134.59193359 100.78120117 -135.31542969 100.70068359 C-138.83702476 100.25559074 -140.80588923 99.81690718 -143.8125 97.8125 C-143.3175 97.255625 -142.8225 96.69875 -142.3125 96.125 C-140.56495633 93.43087017 -140.55031251 91.95874993 -140.8125 88.8125 C-143.89898004 89.13794517 -145.39420073 89.35006824 -147.515625 91.6953125 C-148.02609375 92.43523437 -148.5365625 93.17515625 -149.0625 93.9375 C-152.17156039 97.69791862 -152.17156039 97.69791862 -154.91015625 98.1875 C-157.29218442 97.9186291 -159.49420065 97.42198838 -161.8125 96.8125 C-163.66559181 96.45275173 -165.5197622 96.09851219 -167.375 95.75 C-168.85498288 95.44138865 -170.33446796 95.13032317 -171.8125 94.8125 C-170.78733135 92.74486028 -169.75104481 90.70252755 -168.625 88.6875 C-168.356875 88.06875 -168.08875 87.45 -167.8125 86.8125 C-168.1425 86.1525 -168.4725 85.4925 -168.8125 84.8125 C-171.06104963 84.78600417 -171.06104963 84.78600417 -173.8125 85.8125 C-174.82451483 86.98536603 -175.80856485 88.18258673 -176.7734375 89.39453125 C-179.0347337 91.72169909 -180.20022185 92.7193062 -183.43823242 93.2121582 C-186.45006062 93.09642674 -189.38516734 92.81861315 -192.375 92.4375 C-199.25671041 91.31795808 -199.25671041 91.31795808 -205.82763672 92.81542969 C-207.97987966 94.56777781 -209.5682546 96.32400921 -210.8125 98.8125 C-209.58273438 99.04839844 -208.35296875 99.28429687 -207.0859375 99.52734375 C-200.98064266 100.88977093 -195.25505588 103.10509094 -189.4375 105.375 C-188.29933838 105.81827637 -187.16117676 106.26155273 -185.98852539 106.71826172 C-151.57081599 120.29586803 -151.57081599 120.29586803 -146.8125 129.8125 C-146.20076223 132.94765607 -146.29477502 134.99796818 -148.0300293 137.72802734 C-153.07252215 144.09586167 -158.47266302 150.04412546 -164.125 155.875 C-165.4543457 157.31649414 -165.4543457 157.31649414 -166.81054688 158.78710938 C-174.25421095 166.42623071 -174.25421095 166.42623071 -179.66796875 166.55859375 C-181.38872567 166.35479145 -183.10441127 166.10400065 -184.8125 165.8125 C-185.69172119 165.75715088 -186.57094238 165.70180176 -187.47680664 165.64477539 C-201.85926649 164.32730725 -215.59366512 157.35410792 -228.88745117 152.13232422 C-231.13191818 151.25207331 -233.37646466 150.37202501 -235.62109375 149.4921875 C-236.70992355 149.06348358 -237.79875336 148.63477966 -238.920578 148.19308472 C-244.35347645 146.0747965 -249.7159212 144.14386541 -255.34765625 142.6328125 C-266.25438728 139.6972162 -274.48342813 134.00986618 -282.4453125 126.16015625 C-283.70711082 124.94106316 -283.70711082 124.94106316 -284.99440002 123.69734192 C-290.91451233 117.92810782 -296.70426643 112.03126741 -302.40234375 106.04296875 C-303.48160629 104.91520775 -303.48160629 104.91520775 -304.58267212 103.7646637 C-305.57416763 102.70202553 -305.57416763 102.70202553 -306.58569336 101.61791992 C-307.16314804 101.001884 -307.74060272 100.38584808 -308.33555603 99.75114441 C-311.51128118 95.5826709 -312.0268475 92.16340814 -311.58984375 86.97265625 C-310.40104204 83.66910175 -308.33522869 81.1948943 -305.8125 78.8125 C-302.73114014 77.38233948 -302.73114014 77.38233948 -299.11230469 76.38110352 C-298.42595318 76.18512101 -297.73960167 75.98913851 -297.03245163 75.78721714 C-294.63115865 75.10804642 -292.22223205 74.46105335 -289.8125 73.8125 C-287.93593501 73.28958372 -286.05986021 72.76490606 -284.1842041 72.23873901 C-277.47005018 70.36522255 -270.74300329 68.54018808 -264.015625 66.71484375 C-261.43815415 66.01308959 -258.86075097 65.31109128 -256.28343201 64.60877991 C-250.76209133 63.10472062 -245.24018195 61.60276557 -239.71786499 60.10229492 C-230.97493139 57.72672105 -222.23311746 55.34704365 -213.49145508 52.96679688 C-210.4900143 52.14959533 -207.48856329 51.33243137 -204.48710632 50.51528931 C-203.73731768 50.31115941 -202.98752904 50.10702951 -202.21501952 49.89671385 C-196.83280075 48.43147728 -191.45041181 46.96686689 -186.06794739 45.50253296 C-164.89534997 39.74226028 -143.72519506 33.97308676 -122.55691957 28.1969521 C-120.25629924 27.56919098 -117.95567122 26.94145801 -115.65504074 26.31373405 C-108.17954478 24.2740485 -100.70407868 22.23425349 -93.2286377 20.19436646 C-92.50535243 19.99699766 -91.78206716 19.79962887 -91.03686416 19.5962792 C-87.40741097 18.60587805 -83.77796076 17.61546595 -80.14851379 16.62504196 C-72.52358518 14.5443332 -64.89858537 12.46388591 -57.27339751 10.38412744 C-54.1241461 9.52516325 -50.97494847 8.66600281 -47.82583427 7.80653572 C-42.33567121 6.3081558 -36.8450915 4.81139274 -31.35287476 3.32055664 C-27.91793633 2.38801217 -24.48610121 1.44564719 -21.05752563 0.48999023 C-19.70347777 0.11699967 -18.34942362 -0.25596808 -16.99536133 -0.62890625 C-15.88872635 -0.93771729 -14.78209137 -1.24652832 -13.641922 -1.56469727 C-8.50304923 -2.69584844 -4.860319 -2.05213469 0 0 Z " fill="#2562E8" transform="translate(372.8125,117.1875)"/>
<path d="M0 0 C0 2.87137415 -0.27113266 5.2303041 -1 8 C-1.99 8.495 -1.99 8.495 -3 9 C-3.33 9.66 -3.66 10.32 -4 11 C-4.99 10.67 -5.98 10.34 -7 10 C-7.33 10.99 -7.66 11.98 -8 13 C-7.34 13.33 -6.68 13.66 -6 14 C-6.99 14.495 -6.99 14.495 -8 15 C-9.2570558 18.77116741 -8.90229761 22.10396857 -8.625 26 C-8.58117187 26.72445312 -8.53734375 27.44890625 -8.4921875 28.1953125 C-8.28450671 31.32206215 -7.99525809 34.01422574 -7 37 C-6.34 37.33 -5.68 37.66 -5 38 C-5 37.34 -5 36.68 -5 36 C-4.01 36.33 -3.02 36.66 -2 37 C-6.75 41 -6.75 41 -9 41 C-9.51003854 37.83486722 -10.00615957 34.66769716 -10.5 31.5 C-10.64308594 30.613125 -10.78617187 29.72625 -10.93359375 28.8125 C-13.11149201 14.70801603 -13.11149201 14.70801603 -10.13671875 10.13671875 C-8.92435547 8.92435547 -8.92435547 8.92435547 -7.6875 7.6875 C-6.88699219 6.86636719 -6.08648437 6.04523438 -5.26171875 5.19921875 C-4.14216797 4.11060547 -4.14216797 4.11060547 -3 3 C-2.40832031 2.40832031 -1.81664062 1.81664062 -1.20703125 1.20703125 C-0.80871094 0.80871094 -0.41039062 0.41039062 0 0 Z " fill="#2B61D6" transform="translate(280,217)"/>
<path d="M0 0 C0 0.66 0 1.32 0 2 C-1.0725 2.28875 -2.145 2.5775 -3.25 2.875 C-7.31192054 4.09357616 -10.01195347 5.01195347 -13 8 C-13.74507812 7.84917969 -14.49015625 7.69835937 -15.2578125 7.54296875 C-18.57210658 6.88671964 -20.63096699 7.42355069 -23.875 8.3125 C-24.926875 8.59351563 -25.97875 8.87453125 -27.0625 9.1640625 C-29.34298763 9.81303105 -31.60936654 10.48960398 -33.875 11.1875 C-37.05019285 12.01305014 -39.73473169 12.15928138 -43 12 C-39.41850545 9.61233697 -35.82428485 8.70798044 -31.71875 7.6171875 C-30.9088562 7.39805695 -30.0989624 7.17892639 -29.26452637 6.95315552 C-27.5538575 6.49166058 -25.8424508 6.03289323 -24.13037109 5.57666016 C-21.50813774 4.87717077 -18.88873204 4.16778151 -16.26953125 3.45703125 C-14.60692982 3.00982518 -12.94417438 2.56319118 -11.28125 2.1171875 C-10.49681519 1.90472382 -9.71238037 1.69226013 -8.9041748 1.47335815 C-5.85517695 0.66506198 -3.16900847 0 0 0 Z " fill="#3061CF" transform="translate(174,167)"/>
<path d="M0 0 C0 0.99 0 1.98 0 3 C-0.66 3.66 -1.32 4.32 -2 5 C-1.74406188 7.0155127 -1.48143968 9.03297857 -1.09375 11.02734375 C-1 13 -1 13 -3 16 C-3.33 15.67 -3.66 15.34 -4 15 C-4 17.97 -4 20.94 -4 24 C-3.34 24.33 -2.68 24.66 -2 25 C-2.99 25.33 -3.98 25.66 -5 26 C-9.16807916 9.08235346 -9.16807916 9.08235346 -6.41796875 4.1796875 C-4.35073149 2.44914562 -2.4407641 1.13559761 0 0 Z " fill="#2E62D1" transform="translate(280,260)"/>
<path d="M0 0 C0 0.99 0 1.98 0 3 C0.15968785 5.1671922 0.32747019 7.33379233 0.5 9.5 C0.67336385 11.99954451 0.84011842 14.49955691 1 17 C1.06832031 18.06476563 1.13664062 19.12953125 1.20703125 20.2265625 C1.46705481 27.3723951 1.46705481 27.3723951 -1 30.6875 C-1.66 31.120625 -2.32 31.55375 -3 32 C-3.66 31.67 -4.32 31.34 -5 31 C-4.33613281 30.30261719 -3.67226563 29.60523438 -2.98828125 28.88671875 C-0.57201081 25.37861687 -0.67561082 23.97350017 -1.1875 19.8125 C-1.30996094 18.67683594 -1.43242187 17.54117187 -1.55859375 16.37109375 C-1.83525821 14.25816073 -2.11813922 12.14602224 -2.41015625 10.03515625 C-2.52230469 9.15730469 -2.63445312 8.27945312 -2.75 7.375 C-2.86859375 6.59898437 -2.9871875 5.82296875 -3.109375 5.0234375 C-3 3 -3 3 -1.515625 1.2265625 C-1.01546875 0.82179688 -0.5153125 0.41703125 0 0 Z " fill="#345EC5" transform="translate(279,293)"/>
<path d="M0 0 C0 0.66 0 1.32 0 2 C-2.31 2.66 -4.62 3.32 -7 4 C-7 4.99 -7 5.98 -7 7 C-10.3528764 8.6764382 -13.18903158 7.81123905 -16.6875 7 C-17.89986328 6.7215625 -17.89986328 6.7215625 -19.13671875 6.4375 C-20.05904297 6.2209375 -20.05904297 6.2209375 -21 6 C-17.62473371 3.74982247 -14.36925005 2.86995001 -10.5 1.875 C-9.82324219 1.69324219 -9.14648438 1.51148438 -8.44921875 1.32421875 C-5.54810937 0.56317822 -3.0122546 0 0 0 Z " fill="#2860DA" transform="translate(262,143)"/>
<path d="M0 0 C0.99 0.33 1.98 0.66 3 1 C3.79953138 4.28696233 4.09658936 5.71023192 3 9 C3.99 9 4.98 9 6 9 C6 9.66 6 10.32 6 11 C6.66 11.33 7.32 11.66 8 12 C6.741875 12.04125 5.48375 12.0825 4.1875 12.125 C3.47980469 12.14820313 2.77210938 12.17140625 2.04296875 12.1953125 C0 12 0 12 -3 10 C-2.505 9.46375 -2.01 8.9275 -1.5 8.375 C0.37489544 5.40641555 0.23501425 3.44687573 0 0 Z " fill="#2E60D6" transform="translate(232,205)"/>
<path d="M0 0 C1.98 0.66 3.96 1.32 6 2 C6 2.99 6 3.98 6 5 C11.29194508 5.18248086 14.96752067 4.79731405 20 3 C20.66 3.33 21.32 3.66 22 4 C19.72035464 6.67767867 18.17226418 7.477773 14.6875 7.875 C10.30791156 8.21626663 7.67502349 7.56396988 4 5 C1.625 2.3125 1.625 2.3125 0 0 Z " fill="#3262CC" transform="translate(273,424)"/>
<path d="M0 0 C-0.99 0.33 -1.98 0.66 -3 1 C-2.67 1.99 -2.34 2.98 -2 4 C-3.8253125 3.9690625 -3.8253125 3.9690625 -5.6875 3.9375 C-8.94196171 3.93179042 -11.81042955 4.34572914 -15 5 C-17.33301986 5.03824623 -19.66711508 5.04574284 -22 5 C-18.47893171 3.05460977 -14.8524463 1.94293181 -11 0.8125 C-9.783125 0.44769531 -8.56625 0.08289063 -7.3125 -0.29296875 C-4.27118248 -0.94211789 -2.83488355 -1.11269179 0 0 Z " fill="#2D61D2" transform="translate(116,184)"/>
<path d="M0 0 C4.60853797 0.72008406 8.67237409 2.31295939 13 4 C12.67 4.99 12.34 5.98 12 7 C6.375 8.125 6.375 8.125 3 7 C3 5.68 3 4.36 3 3 C1.5833253 1.2488427 1.5833253 1.2488427 0 0 Z " fill="#295FD7" transform="translate(184,224)"/>
<path d="M0 0 C0 0.66 0 1.32 0 2 C-1.0725 2.28875 -2.145 2.5775 -3.25 2.875 C-7.31192054 4.09357616 -10.01195347 5.01195347 -13 8 C-13.33 7.67 -13.66 7.34 -14 7 C-16.32817964 6.63239269 -18.6618385 6.29758419 -21 6 C-17.62473371 3.74982247 -14.36925005 2.86995001 -10.5 1.875 C-9.82324219 1.69324219 -9.14648438 1.51148437 -8.44921875 1.32421875 C-5.54810937 0.56317822 -3.0122546 0 0 0 Z " fill="#2D61D2" transform="translate(350,119)"/>
<path d="M0 0 C0.66 0.33 1.32 0.66 2 1 C1.75 2.8125 1.75 2.8125 1 5 C0.3296875 5.4228125 -0.340625 5.845625 -1.03125 6.28125 C-3.28003956 7.8678595 -3.28003956 7.8678595 -3.390625 10.69921875 C-3.34421875 11.68535156 -3.2978125 12.67148438 -3.25 13.6875 C-3.21390625 14.68136719 -3.1778125 15.67523438 -3.140625 16.69921875 C-3.09421875 17.45847656 -3.0478125 18.21773437 -3 19 C-5.87105327 16.12894673 -5.80272795 14.01119831 -6 10 C-4.6551394 5.96541819 -3.35407832 2.71520626 0 0 Z " fill="#3362CB" transform="translate(67,196)"/>
<path d="M0 0 C2.66316813 3.99475219 2.80670682 7.68565617 3.4375 12.3828125 C3.623125 13.24648437 3.80875 14.11015625 4 15 C4.66 15.33 5.32 15.66 6 16 C6 15.34 6 14.68 6 14 C6.99 14.33 7.98 14.66 9 15 C4.25 19 4.25 19 2 19 C1.66089006 16.95928485 1.32897296 14.91737379 1 12.875 C0.814375 11.73804688 0.62875 10.60109375 0.4375 9.4296875 C0.03043951 6.23862398 -0.07809902 3.21182209 0 0 Z " fill="#305DC6" transform="translate(269,239)"/>
<path d="M0 0 C0.99 0 1.98 0 3 0 C2.38461538 6.52307692 2.38461538 6.52307692 0.4375 8.9375 C-0.036875 9.288125 -0.51125 9.63875 -1 10 C-1.66 9.34 -2.32 8.68 -3 8 C-2.60495559 5.0371669 -1.40182371 2.61673759 0 0 Z " fill="#2962D9" transform="translate(372,139)"/>
<path d="M0 0 C-0.85464844 0.27714844 -1.70929688 0.55429688 -2.58984375 0.83984375 C-3.69457031 1.20207031 -4.79929688 1.56429687 -5.9375 1.9375 C-7.03964844 2.29714844 -8.14179688 2.65679687 -9.27734375 3.02734375 C-11.88123475 3.73856668 -11.88123475 3.73856668 -13 5 C-14.51928038 5.07179964 -16.04167482 5.08392007 -17.5625 5.0625 C-18.38878906 5.05347656 -19.21507812 5.04445312 -20.06640625 5.03515625 C-20.70449219 5.02355469 -21.34257812 5.01195312 -22 5 C-18.47893171 3.05460977 -14.8524463 1.94293181 -11 0.8125 C-9.783125 0.44769531 -8.56625 0.08289063 -7.3125 -0.29296875 C-4.27118248 -0.94211789 -2.83488355 -1.11269179 0 0 Z " fill="#3160C9" transform="translate(204,160)"/>
<path d="M0 0 C2.7839183 1.39195915 2.97898997 3.15575779 4 6 C4.99 5.67 5.98 5.34 7 5 C7 5.66 7 6.32 7 7 C7.66 7.33 8.32 7.66 9 8 C9 9.65 9 11.3 9 13 C7.86800647 12.0919838 6.74467637 11.17316174 5.625 10.25 C4.99851563 9.73953125 4.37203125 9.2290625 3.7265625 8.703125 C1.88150118 6.88310976 0.93802941 5.40666131 0 3 C0 2.01 0 1.02 0 0 Z " fill="#2F60CE" transform="translate(231,378)"/>
<path d="M0 0 C0 0.66 0 1.32 0 2 C-3.87684087 3.19287411 -6.91621923 4 -11 4 C-11.66 5.32 -12.32 6.64 -13 8 C-13.33 7.01 -13.66 6.02 -14 5 C-14.99 4.67 -15.98 4.34 -17 4 C-14.5424552 3.33030409 -12.08405076 2.6641232 -9.625 2 C-8.57699219 1.71382812 -8.57699219 1.71382812 -7.5078125 1.421875 C-2.2265625 0 -2.2265625 0 0 0 Z " fill="#2E60D0" transform="translate(232,151)"/>
<path d="M0 0 C0 0.66 0 1.32 0 2 C-1.98 2.33 -3.96 2.66 -6 3 C-6.33 4.32 -6.66 5.64 -7 7 C-7.33 6.34 -7.66 5.68 -8 5 C-10.97 5 -13.94 5 -17 5 C-14.03799949 3.025333 -11.90228368 2.28044646 -8.5 1.375 C-7.5409375 1.11460937 -6.581875 0.85421875 -5.59375 0.5859375 C-3 0 -3 0 0 0 Z " fill="#2F62D2" transform="translate(86,191)"/>
<path d="M0 0 C2.0625 0.4375 2.0625 0.4375 4 1 C2 3 2 3 0.1171875 3.23046875 C-4.99472504 3.13250527 -9.93874879 2.73618199 -15 2 C-15 1.67 -15 1.34 -15 1 C-14.00097656 1.01160156 -13.00195312 1.02320313 -11.97265625 1.03515625 C-10.68230469 1.04417969 -9.39195312 1.05320313 -8.0625 1.0625 C-6.13083984 1.07990234 -6.13083984 1.07990234 -4.16015625 1.09765625 C-1.13701597 1.36532549 -1.13701597 1.36532549 0 0 Z " fill="#2E5FCB" transform="translate(255,216)"/>
<path d="M0 0 C1.63129887 4.06285757 0.29968777 7.20102184 -0.9375 11.25 C-1.31777344 12.51328125 -1.69804687 13.7765625 -2.08984375 15.078125 C-2.39019531 16.04234375 -2.69054687 17.0065625 -3 18 C-3.33 18 -3.66 18 -4 18 C-4.2919519 12.45291384 -3.19088986 7.38027025 -2 2 C-1.34 2 -0.68 2 0 2 C0 1.34 0 0.68 0 0 Z " fill="#3060CC" transform="translate(359,194)"/>
<path d="M0 0 C-0.66 1.65 -1.32 3.3 -2 5 C-3.051875 4.7525 -3.051875 4.7525 -4.125 4.5 C-7.13888194 3.97584662 -9.94713625 3.92900317 -13 4 C-10.34531286 2.23020858 -8.92500069 1.57859829 -5.9375 0.875 C-5.24527344 0.70742187 -4.55304688 0.53984375 -3.83984375 0.3671875 C-2 0 -2 0 0 0 Z " fill="#2D5DD0" transform="translate(320,127)"/>
<path d="M0 0 C0 3.91852573 -1.45029459 5.14123939 -4 8 C-4.33 8 -4.66 8 -5 8 C-5.33 10.97 -5.66 13.94 -6 17 C-6.33 17 -6.66 17 -7 17 C-8.0735426 8.5309417 -8.0735426 8.5309417 -5.44140625 4.77734375 C-3.69609895 3.0671533 -1.93499705 1.49073753 0 0 Z " fill="#2D60CD" transform="translate(211,283)"/>
<path d="M0 0 C1.63129887 4.06285757 0.29968777 7.20102184 -0.9375 11.25 C-1.31777344 12.51328125 -1.69804687 13.7765625 -2.08984375 15.078125 C-2.39019531 16.04234375 -2.69054687 17.0065625 -3 18 C-4.26823485 14.34606463 -3.75715321 11.50929974 -3.0625 7.75 C-2.86785156 6.67234375 -2.67320312 5.5946875 -2.47265625 4.484375 C-2.31667969 3.66453125 -2.16070312 2.8446875 -2 2 C-1.34 2 -0.68 2 0 2 C0 1.34 0 0.68 0 0 Z " fill="#3260CB" transform="translate(311,370)"/>
<path d="M0 0 C4.23429756 1.31061591 8.07407404 2.94356259 12 5 C12 5.33 12 5.66 12 6 C9.69 6 7.38 6 5 6 C4.67 5.01 4.34 4.02 4 3 C3.01 3 2.02 3 1 3 C0.67 2.01 0.34 1.02 0 0 Z " fill="#2A60CF" transform="translate(200,230)"/>
<path d="M0 0 C0.5775 0.165 1.155 0.33 1.75 0.5 C4.26664369 1.14462031 4.26664369 1.14462031 8 1 C8 3.64 8 6.28 8 9 C7.34 9 6.68 9 6 9 C6.33 7.02 6.66 5.04 7 3 C4.69 3.66 2.38 4.32 0 5 C0 3.35 0 1.7 0 0 Z " fill="#2E5DCF" transform="translate(279,279)"/>
<path d="M0 0 C1.65 0 3.3 0 5 0 C5.2475 0.7425 5.495 1.485 5.75 2.25 C7.09147301 5.20124062 8.60905526 6.84814974 11 9 C10.67 9.66 10.34 10.32 10 11 C8.33035479 9.35718838 6.6643536 7.71067239 5 6.0625 C4.071875 5.14597656 3.14375 4.22945312 2.1875 3.28515625 C0 1 0 1 0 0 Z " fill="#325EC9" transform="translate(69,220)"/>
<path d="M0 0 C0.66 0.33 1.32 0.66 2 1 C1.34 2.32 0.68 3.64 0 5 C1.65 5 3.3 5 5 5 C5 5.66 5 6.32 5 7 C2.03 6.67 -0.94 6.34 -4 6 C-2 2 -2 2 0 0 Z " fill="#3461C7" transform="translate(205,206)"/>
<path d="M0 0 C0.99 0.495 0.99 0.495 2 1 C2 1.66 2 2.32 2 3 C2.99 2.67 3.98 2.34 5 2 C5 5.63 5 9.26 5 13 C3.09610151 10.14415227 2.30537823 8.0688238 1.375 4.8125 C0.98441406 3.46091797 0.98441406 3.46091797 0.5859375 2.08203125 C0.39257812 1.39496094 0.19921875 0.70789063 0 0 Z " fill="#3360CC" transform="translate(225,363)"/>
<path d="M0 0 C1.98 0.99 1.98 0.99 4 2 C4 3.32 4 4.64 4 6 C4.66 6.33 5.32 6.66 6 7 C4 7 2 7 0 7 C0 4.69 0 2.38 0 0 Z " fill="#2B5ED9" transform="translate(281,253)"/>
<path d="M0 0 C-2.61514317 2.12038635 -5.19637616 4.13091744 -8 6 C-7.625 3.0625 -7.625 3.0625 -7 0 C-4.3333581 -1.33332095 -2.83319697 -0.67102033 0 0 Z " fill="#2A5FCD" transform="translate(203,200)"/>
<path d="M0 0 C0.66 0 1.32 0 2 0 C2 0.66 2 1.32 2 2 C1.01 2.66 0.02 3.32 -1 4 C-1.72382467 6.05925139 -1.72382467 6.05925139 -2 8 C-3.65 6.02 -5.3 4.04 -7 2 C-6.21625 2.04125 -5.4325 2.0825 -4.625 2.125 C-1.83883881 2.28728734 -1.83883881 2.28728734 0 0 Z " fill="#2F60D2" transform="translate(268,410)"/>
<path d="M0 0 C2.95183101 2.95183101 3.08663988 5.95511947 4 10 C2.68 9.34 1.36 8.68 0 8 C0 7.34 0 6.68 0 6 C-0.66 5.67 -1.32 5.34 -2 5 C-1.34 3.35 -0.68 1.7 0 0 Z " fill="#2960CD" transform="translate(259,292)"/>
<path d="M0 0 C1.32 0.66 2.64 1.32 4 2 C1.36 3.98 -1.28 5.96 -4 8 C-2.66666667 5.33333333 -1.33333333 2.66666667 0 0 Z " fill="#2D5DD2" transform="translate(271,200)"/>
<path d="M0 0 C0.33 0 0.66 0 1 0 C1.26785714 8.03571429 1.26785714 8.03571429 -1 12 C-1.22162329 10.37675914 -1.42689803 8.751279 -1.625 7.125 C-1.74101562 6.22007812 -1.85703125 5.31515625 -1.9765625 4.3828125 C-1.98429687 3.59648437 -1.99203125 2.81015625 -2 2 C-1.34 1.34 -0.68 0.68 0 0 Z " fill="#2963D6" transform="translate(364,171)"/>
<path d="M0 0 C-4.48074195 3.36055646 -7.60550707 3.27429625 -13 3 C-10.37358828 1.24905885 -8.89308789 0.54725362 -5.9375 -0.1875 C-5.24527344 -0.36667969 -4.55304688 -0.54585937 -3.83984375 -0.73046875 C-2 -1 -2 -1 0 0 Z " fill="#2D61CE" transform="translate(254,146)"/>
<path d="M0 0 C0 0.99 0 1.98 0 3 C-0.66 3.66 -1.32 4.32 -2 5 C-2.16687448 7.58354218 -2.16687448 7.58354218 -2 10 C-3.32 9.34 -4.64 8.68 -6 8 C-2.25 2.25 -2.25 2.25 0 0 Z " fill="#2B5EDD" transform="translate(280,260)"/>
<path d="M0 0 C0.33 0.66 0.66 1.32 1 2 C0.67 2.99 0.34 3.98 0 5 C-3.0625 6.1875 -3.0625 6.1875 -6 7 C-4.02 4.69 -2.04 2.38 0 0 Z " fill="#2D5BC4" transform="translate(223,271)"/>
</svg>
