<?xml version="1.0" encoding="UTF-8"?>
<svg version="1.1" xmlns="http://www.w3.org/2000/svg" width="500" height="500">
<path d="M0 0 C2.85006932 2.36148601 3.91791813 4.33785489 5.1875 7.8125 C5.67545553 14.03125737 4.20814497 19.34116227 2.54589844 25.26245117 C2.26160791 26.30261887 1.97731739 27.34278656 1.684412 28.41447449 C0.73029276 31.89717174 -0.23647849 35.37622955 -1.203125 38.85546875 C-1.89040739 41.35486474 -2.57685917 43.85448926 -3.26254272 46.35432434 C-4.74163533 51.7422461 -6.2269908 57.12840827 -7.71661377 62.51342773 C-10.08082674 71.06056085 -12.43280632 79.61103411 -14.78271484 88.16210938 C-15.58938751 91.09703174 -16.39613495 94.03193355 -17.20291138 96.96682739 C-17.40459958 97.70056646 -17.60628778 98.43430554 -17.81408775 99.19027913 C-19.26609107 104.47203532 -20.71986343 109.75330282 -22.17428589 115.03439331 C-28.09378975 136.53109356 -33.97668848 158.03758349 -39.8359375 179.55078125 C-40.24588619 181.0557739 -40.65583898 182.56076544 -41.0657959 184.06575584 C-44.24373548 195.73273205 -47.4199816 207.40016923 -50.59571838 219.06774521 C-51.54245524 222.54597801 -52.48931777 226.02417657 -53.43630695 229.50234067 C-53.80604095 230.86032757 -54.1757508 232.21832104 -54.54543591 233.57632124 C-57.42507674 244.15361319 -60.3185715 254.72707575 -63.21808624 265.2989378 C-64.82648215 271.17310378 -66.41437564 277.05184838 -67.96766853 282.94082642 C-68.77555655 285.99740176 -69.59666939 289.05031326 -70.42081833 292.10253906 C-70.93408121 294.02443737 -71.4276324 295.95156801 -71.92007446 297.87890625 C-73.67395639 304.32931961 -75.58869998 309.41482936 -80.8125 313.8125 C-83.15625 314.8203125 -83.15625 314.8203125 -85.3125 314.9375 C-86.0240625 315.00195312 -86.735625 315.06640625 -87.46875 315.1328125 C-98.49774415 313.62551663 -106.99553232 301.54732398 -114.51464844 294.16064453 C-116.51922213 292.19557774 -118.54290201 290.2544367 -120.58886719 288.33251953 C-134.08871808 275.6316905 -143.05210231 263.86912136 -148.79846191 245.88861084 C-150.13324536 241.83951062 -151.69716808 237.90078733 -153.28118896 233.94387817 C-154.79886757 230.15176452 -156.25852374 226.33838049 -157.72021484 222.52441406 C-158.45626173 220.61273217 -159.19891964 218.70358418 -159.94775391 216.796875 C-164.405401 205.43687896 -168.02608295 195.07797828 -168.8125 182.8125 C-168.96638184 181.90773926 -169.12026367 181.00297852 -169.27880859 180.07080078 C-169.80394431 175.80876923 -169.39550474 173.64689758 -166.90332031 170.08007812 C-164.67173915 167.59143384 -162.40178317 165.26681516 -159.96240234 162.98828125 C-158.45122291 161.5753309 -156.98020087 160.1290194 -155.51171875 158.671875 C-141.32469106 144.81935792 -141.32469106 144.81935792 -132 144.1875 C-127.81587008 144.53372202 -125.60093269 145.54605028 -122.8125 148.8125 C-119.36902171 155.44444438 -116.98637574 162.60583219 -114.484375 169.62890625 C-113.89357147 171.27450783 -113.89357147 171.27450783 -113.29083252 172.95335388 C-112.04486596 176.4261026 -110.80361168 179.90051364 -109.5625 183.375 C-108.71385355 185.74295034 -107.86489832 188.11079004 -107.015625 190.47851562 C-104.94434397 196.2552357 -102.87691968 202.03332458 -100.8125 207.8125 C-97.28868313 205.26645403 -97.28868313 205.26645403 -94.8125 201.8125 C-94.87654554 199.80962128 -95.01329319 197.80881585 -95.1875 195.8125 C-95.27644531 194.64332031 -95.36539063 193.47414063 -95.45703125 192.26953125 C-95.74490933 188.90590022 -95.74490933 188.90590022 -96.38671875 186.01171875 C-96.89106278 183.41737304 -97.19898459 181.432506 -96.8125 178.8125 C-95.00358205 176.4163267 -93.03700927 174.59427759 -90.76171875 172.640625 C-88.28315279 170.31603809 -87.4729168 168.11458402 -86.8125 164.8125 C-90.53797711 166.02544604 -94.18227984 167.34062198 -97.8125 168.8125 C-102.00006447 151.81576532 -102.00006447 151.81576532 -99.265625 147.203125 C-97.0625 145.5 -97.0625 145.5 -94.765625 144.1015625 C-92.42346254 142.85833355 -92.42346254 142.85833355 -91.8125 139.375 C-91.8125 138.529375 -91.8125 137.68375 -91.8125 136.8125 C-95.19707255 137.41688796 -97.1125178 138.74251365 -99.8125 140.8125 C-100.4725 140.8125 -101.1325 140.8125 -101.8125 140.8125 C-102.32253854 137.64736722 -102.81865957 134.48019716 -103.3125 131.3125 C-103.45558594 130.425625 -103.59867188 129.53875 -103.74609375 128.625 C-105.91629098 114.57038934 -105.91629098 114.57038934 -103.125 110.125 C-102.361875 109.361875 -101.59875 108.59875 -100.8125 107.8125 C-99.57886719 106.5440625 -99.57886719 106.5440625 -98.3203125 105.25 C-96.77518808 103.74819682 -95.22862325 102.24787193 -93.6796875 100.75 C-84.57608324 92.06154311 -84.57608324 92.06154311 -79.8125 80.75 C-79.8125 79.780625 -79.8125 78.81125 -79.8125 77.8125 C-80.90689176 76.50229239 -80.90689176 76.50229239 -83.59765625 76.5859375 C-94.66282041 77.36574251 -106.77453094 92.33838167 -114.0234375 100.21484375 C-116.50709956 102.43278651 -118.67609315 102.229004 -121.8984375 102.078125 C-125.6663925 101.7346653 -129.42831825 101.36709666 -133.1875 100.9375 C-133.8897168 100.85935059 -134.59193359 100.78120117 -135.31542969 100.70068359 C-138.83702476 100.25559074 -140.80588923 99.81690718 -143.8125 97.8125 C-143.3175 97.255625 -142.8225 96.69875 -142.3125 96.125 C-140.56495633 93.43087017 -140.55031251 91.95874993 -140.8125 88.8125 C-143.89898004 89.13794517 -145.39420073 89.35006824 -147.515625 91.6953125 C-148.02609375 92.43523437 -148.5365625 93.17515625 -149.0625 93.9375 C-152.17156039 97.69791862 -152.17156039 97.69791862 -154.91015625 98.1875 C-157.29218442 97.9186291 -159.49420065 97.42198838 -161.8125 96.8125 C-163.66559181 96.45275173 -165.5197622 96.09851219 -167.375 95.75 C-168.85498288 95.44138865 -170.33446796 95.13032317 -171.8125 94.8125 C-170.78733135 92.74486028 -169.75104481 90.70252755 -168.625 88.6875 C-168.356875 88.06875 -168.08875 87.45 -167.8125 86.8125 C-168.1425 86.1525 -168.4725 85.4925 -168.8125 84.8125 C-171.06104963 84.78600417 -171.06104963 84.78600417 -173.8125 85.8125 C-174.82451483 86.98536603 -175.80856485 88.18258673 -176.7734375 89.39453125 C-179.0347337 91.72169909 -180.20022185 92.7193062 -183.43823242 93.2121582 C-186.45006062 93.09642674 -189.38516734 92.81861315 -192.375 92.4375 C-199.25671041 91.31795808 -199.25671041 91.31795808 -205.82763672 92.81542969 C-207.97987966 94.56777781 -209.5682546 96.32400921 -210.8125 98.8125 C-209.58273438 99.04839844 -208.35296875 99.28429687 -207.0859375 99.52734375 C-200.98064266 100.88977093 -195.25505588 103.10509094 -189.4375 105.375 C-188.29933838 105.81827637 -187.16117676 106.26155273 -185.98852539 106.71826172 C-151.57081599 120.29586803 -151.57081599 120.29586803 -146.8125 129.8125 C-146.20076223 132.94765607 -146.29477502 134.99796818 -148.0300293 137.72802734 C-153.07252215 144.09586167 -158.47266302 150.04412546 -164.125 155.875 C-165.4543457 157.31649414 -165.4543457 157.31649414 -166.81054688 158.78710938 C-174.25421095 166.42623071 -174.25421095 166.42623071 -179.66796875 166.55859375 C-181.38872567 166.35479145 -183.10441127 166.10400065 -184.8125 165.8125 C-185.69172119 165.75715088 -186.57094238 165.70180176 -187.47680664 165.64477539 C-201.85926649 164.32730725 -215.59366512 157.35410792 -228.88745117 152.13232422 C-231.13191818 151.25207331 -233.37646466 150.37202501 -235.62109375 149.4921875 C-236.70992355 149.06348358 -237.79875336 148.63477966 -238.920578 148.19308472 C-244.35347645 146.0747965 -249.7159212 144.14386541 -255.34765625 142.6328125 C-266.25438728 139.6972162 -274.48342813 134.00986618 -282.4453125 126.16015625 C-283.70711082 124.94106316 -283.70711082 124.94106316 -284.99440002 123.69734192 C-290.91451233 117.92810782 -296.70426643 112.03126741 -302.40234375 106.04296875 C-303.48160629 104.91520775 -303.48160629 104.91520775 -304.58267212 103.7646637 C-305.57416763 102.70202553 -305.57416763 102.70202553 -306.58569336 101.61791992 C-307.16314804 101.001884 -307.74060272 100.38584808 -308.33555603 99.75114441 C-311.51128118 95.5826709 -312.0268475 92.16340814 -311.58984375 86.97265625 C-310.40104204 83.66910175 -308.33522869 81.1948943 -305.8125 78.8125 C-302.73114014 77.38233948 -302.73114014 77.38233948 -299.11230469 76.38110352 C-298.42595318 76.18512101 -297.73960167 75.98913851 -297.03245163 75.78721714 C-294.63115865 75.10804642 -292.22223205 74.46105335 -289.8125 73.8125 C-287.93593501 73.28958372 -286.05986021 72.76490606 -284.1842041 72.23873901 C-277.47005018 70.36522255 -270.74300329 68.54018808 -264.015625 66.71484375 C-261.43815415 66.01308959 -258.86075097 65.31109128 -256.28343201 64.60877991 C-250.76209133 63.10472062 -245.24018195 61.60276557 -239.71786499 60.10229492 C-230.97493139 57.72672105 -222.23311746 55.34704365 -213.49145508 52.96679688 C-210.4900143 52.14959533 -207.48856329 51.33243137 -204.48710632 50.51528931 C-203.73731768 50.31115941 -202.98752904 50.10702951 -202.21501952 49.89671385 C-196.83280075 48.43147728 -191.45041181 46.96686689 -186.06794739 45.50253296 C-164.89534997 39.74226028 -143.72519506 33.97308676 -122.55691957 28.1969521 C-120.25629924 27.56919098 -117.95567122 26.94145801 -115.65504074 26.31373405 C-108.17954478 24.2740485 -100.70407868 22.23425349 -93.2286377 20.19436646 C-92.50535243 19.99699766 -91.78206716 19.79962887 -91.03686416 19.5962792 C-87.40741097 18.60587805 -83.77796076 17.61546595 -80.14851379 16.62504196 C-72.52358518 14.5443332 -64.89858537 12.46388591 -57.27339751 10.38412744 C-54.1241461 9.52516325 -50.97494847 8.66600281 -47.82583427 7.80653572 C-42.33567121 6.3081558 -36.8450915 4.81139274 -31.35287476 3.32055664 C-27.91793633 2.38801217 -24.48610121 1.44564719 -21.05752563 0.48999023 C-19.70347777 0.11699967 -18.34942362 -0.25596808 -16.99536133 -0.62890625 C-15.88872635 -0.93771729 -14.78209137 -1.24652832 -13.641922 -1.56469727 C-8.50304923 -2.69584844 -4.860319 -2.05213469 0 0 Z " fill="#FFFFFF" transform="translate(372.8125,117.1875)"/>
</svg>
