<?xml version="1.0" encoding="UTF-8"?>
<svg version="1.1" xmlns="http://www.w3.org/2000/svg" width="500" height="500">
<path d="M0 0 C165 0 330 0 500 0 C500 165 500 330 500 500 C335 500 170 500 0 500 C0 335 0 170 0 0 Z " fill="#2563EB" transform="translate(0,0)"/>
<path d="M0 0 C165 0 330 0 500 0 C500 165 500 330 500 500 C335 500 170 500 0 500 C0 335 0 170 0 0 Z M216 22 C214.09734375 22.29197266 214.09734375 22.29197266 212.15625 22.58984375 C208.07562997 23.29068195 204.04126716 24.1031995 200 25 C199.15872559 25.1851416 198.31745117 25.3702832 197.45068359 25.56103516 C163.23341596 33.29385511 130.83449222 49.39820716 104 72 C103.20795166 72.65887207 103.20795166 72.65887207 102.39990234 73.33105469 C58.18595621 110.15315699 26.32773148 165.33824596 20.79052734 223.18847656 C19.95384845 233.25069927 19.91165624 243.34625225 19.875 253.4375 C19.87024658 254.50291016 19.86549316 255.56832031 19.8605957 256.66601562 C19.88135074 266.56078793 20.50366426 276.2740747 22.4140625 285.9921875 C22.83601197 288.15819478 23.22236831 290.33124494 23.5859375 292.5078125 C33.55952667 350.58930238 68.8335036 404.32756518 116.82421875 438.29101562 C160.37899423 468.59975114 208.59122657 480.84298848 261 480 C262.22686523 479.98114746 262.22686523 479.98114746 263.47851562 479.96191406 C283.26677148 479.54789846 302.29243792 475.27633016 321 469 C321.77375977 468.74379883 322.54751953 468.48759766 323.34472656 468.22363281 C380.1316384 449.16714071 427.69245702 408.57591944 455.015625 355.21875 C465.08552595 334.93824073 473.26954264 313.41931726 477 291 C477.25910156 289.55173828 477.25910156 289.55173828 477.5234375 288.07421875 C481.8361048 262.47947585 481.43368881 235.52010169 477 210 C476.7834375 208.74832031 476.566875 207.49664062 476.34375 206.20703125 C475.66662702 202.76901992 474.87053007 199.39433573 474 196 C473.80567383 195.24074219 473.61134766 194.48148438 473.41113281 193.69921875 C458.37942883 135.90916995 421.83039004 84.27278455 370.26953125 53.46484375 C341.06354666 36.45144911 309.76878913 24.62084182 276 21 C274.80632812 20.86980469 273.61265625 20.73960938 272.3828125 20.60546875 C253.71869272 19.01838373 234.52043185 19.09367486 216 22 Z " fill="#FEFEFE" transform="translate(0,0)"/>
<path d="M0 0 C3.33510353 3.72635879 3.45569315 6.25551776 3.30224609 11.10107422 C2.73241164 16.56651387 1.27289289 21.77755361 -0.1875 27.0625 C-0.50847656 28.26132813 -0.82945312 29.46015625 -1.16015625 30.6953125 C-3.03232438 37.63731192 -4.99804875 44.54763716 -7.0847168 51.42797852 C-9.07705401 58.0699095 -10.78037617 64.78317872 -12.5 71.5 C-14.55461692 79.52529856 -16.67915042 87.5033354 -19.0859375 95.4296875 C-21.07594047 102.07164547 -22.78052716 108.7837685 -24.5 115.5 C-26.55461692 123.52529856 -28.67915042 131.5033354 -31.0859375 139.4296875 C-33.07594047 146.07164547 -34.78052716 152.7837685 -36.5 159.5 C-38.55461692 167.52529856 -40.67915042 175.5033354 -43.0859375 183.4296875 C-45.07594047 190.07164547 -46.78052716 196.7837685 -48.5 203.5 C-50.55461692 211.52529856 -52.67915042 219.5033354 -55.0859375 227.4296875 C-57.07594196 234.07165045 -58.78041588 240.78379312 -60.5 247.5 C-62.55894416 255.53725129 -64.66255163 263.53988066 -67.08374023 271.47583008 C-68.39861283 275.82716467 -69.58535603 280.20019201 -70.72265625 284.6015625 C-71.026875 285.77001709 -71.33109375 286.93847168 -71.64453125 288.14233398 C-72.24390768 290.45710661 -72.83417138 292.7742634 -73.4140625 295.09399414 C-76.71242963 307.78024284 -76.71242963 307.78024284 -81.984375 311.33984375 C-85.79647981 312.58838195 -89.05694753 312.76431097 -93 312 C-94.90103149 310.68737793 -94.90103149 310.68737793 -96.74072266 308.95117188 C-97.43208313 308.31308594 -98.1234436 307.675 -98.83575439 307.01757812 C-99.54995544 306.35177734 -100.26415649 305.68597656 -101 305 C-102.42753849 303.75523333 -103.85908758 302.51505252 -105.29443359 301.27929688 C-131.89706098 277.98218054 -147.41412315 256.98127679 -157.46044922 223.03027344 C-159.39489571 216.55134306 -161.93594611 210.37845988 -164.5 204.125 C-167.96585275 195.15202675 -169.66308914 186.62912964 -170 177 C-170.11859375 175.96488281 -170.2371875 174.92976562 -170.359375 173.86328125 C-169.8558491 169.85149338 -167.66687117 168.23941399 -164.6875 165.8125 C-163.57705117 164.85953241 -162.46903258 163.90372672 -161.36328125 162.9453125 C-160.79947754 162.46094727 -160.23567383 161.97658203 -159.65478516 161.47753906 C-157.08198387 159.18031371 -154.7536829 156.68528719 -152.375 154.1875 C-146.75693457 148.53705379 -141.25817178 143.86606884 -133.3125 142.25 C-128.61368181 143.31388336 -125.9130357 145.26508173 -123 149 C-120.4028349 154.51394592 -118.49690871 160.22692257 -116.5625 166 C-116.00063853 167.62412985 -115.4365803 169.24750135 -114.87036133 170.87011719 C-113.75120181 174.08399614 -112.64228299 177.30109879 -111.54199219 180.52148438 C-109.50638891 186.46142081 -107.35382418 192.35655302 -105.1875 198.25 C-104.55547476 199.98418746 -103.9239001 201.71853926 -103.29296875 203.453125 C-102.86628906 204.62359375 -102.43960938 205.7940625 -102 207 C-98.47618313 204.45395403 -98.47618313 204.45395403 -96 201 C-95.90080923 199.39836084 -95.87030102 197.79220082 -95.875 196.1875 C-95.87306641 194.71603516 -95.87306641 194.71603516 -95.87109375 193.21484375 C-95.94827381 189.96415443 -95.94827381 189.96415443 -96.47265625 186.62890625 C-97.65356544 178.0449865 -97.65356544 178.0449865 -95.578125 174.7265625 C-93.80480828 172.98988456 -91.95785597 171.51940042 -90 170 C-87.69328085 167.28450846 -87.69328085 167.28450846 -88.375 164.8125 C-88.58125 164.214375 -88.7875 163.61625 -89 163 C-92.36327963 163.56054661 -94.99112219 164.41841038 -98 166 C-98.53321262 163.77376199 -99.05110119 161.54384996 -99.5625 159.3125 C-99.99755859 157.45044922 -99.99755859 157.45044922 -100.44140625 155.55078125 C-100.97038011 152.18828306 -101.06875123 150.19500369 -100 147 C-97.5625 144.1875 -97.5625 144.1875 -95 142 C-94.34 142 -93.68 142 -93 142 C-92.67 140.02 -92.34 138.04 -92 136 C-94.29294488 135.14025199 -94.29294488 135.14025199 -97 135 C-99.2085766 136.87508162 -99.2085766 136.87508162 -101 139 C-101.66 139 -102.32 139 -103 139 C-103.5067183 135.45926096 -104.00417029 131.91727889 -104.5 128.375 C-104.64308594 127.37597656 -104.78617188 126.37695312 -104.93359375 125.34765625 C-105.20300429 123.41046621 -105.456137 121.47092909 -105.69140625 119.52929688 C-105.9274785 117.59440091 -106.21753144 115.66602043 -106.53125 113.7421875 C-105.64867891 109.18656322 -102.32891327 106.79758008 -99 103.75 C-97.61625649 102.42686433 -96.23602641 101.1000443 -94.859375 99.76953125 C-94.19228516 99.12709473 -93.52519531 98.4846582 -92.83789062 97.82275391 C-87.74065472 92.76749842 -82.38691199 86.84248104 -80 80 C-80.20435808 77.21352443 -80.20435808 77.21352443 -81 75 C-84.39042968 74.14247904 -86.35726857 73.73663224 -89.640625 75.08203125 C-95.6335703 79.05639468 -100.66825284 83.36423263 -105.63671875 88.5625 C-108.41891293 91.43206887 -111.36683206 94.03402077 -114.40625 96.625 C-115.65053045 97.69849686 -116.83796959 98.83796959 -118 100 C-126.71143471 100.14399066 -135.46311381 98.61043824 -144 97 C-143.52433594 96.11054688 -143.52433594 96.11054688 -143.0390625 95.203125 C-141.76662181 92.50516805 -141.40121626 89.94225259 -141 87 C-142.81151304 86.24131495 -142.81151304 86.24131495 -145 86 C-146.93289102 87.07202743 -146.93289102 87.07202743 -148.625 88.75 C-149.51058594 89.54664063 -149.51058594 89.54664063 -150.4140625 90.359375 C-152.20669902 92.11562232 -152.20669902 92.11562232 -154 95 C-156.06277107 94.85805236 -158.12521031 94.71127784 -160.1875 94.5625 C-161.91033203 94.44068359 -161.91033203 94.44068359 -163.66796875 94.31640625 C-166.51598171 94.04596188 -169.21210482 93.62478253 -172 93 C-171.690625 92.443125 -171.38125 91.88625 -171.0625 91.3125 C-169.94238179 88.87459567 -169.43962636 86.63775814 -169 84 C-171.31758793 83.19068966 -171.31758793 83.19068966 -174 83 C-175.90437354 84.41319571 -175.90437354 84.41319571 -177.55078125 86.4296875 C-181.00095148 89.69281494 -183.10531261 90.49714997 -187.85546875 90.5078125 C-189.96799135 90.41567756 -192.07920514 90.2872756 -194.1875 90.125 C-202.20169047 89.24162851 -202.20169047 89.24162851 -209.17578125 92.4296875 C-210.07876953 93.70199219 -210.07876953 93.70199219 -211 95 C-211.33 95.33 -211.66 95.66 -212 96 C-210.48599609 96.58394531 -210.48599609 96.58394531 -208.94140625 97.1796875 C-204.92169043 98.73356704 -200.90700644 100.3001366 -196.89355469 101.87011719 C-194.89782514 102.64941489 -192.90101161 103.42594031 -190.90332031 104.20019531 C-154.4488982 118.34917193 -154.4488982 118.34917193 -149 127 C-147.78307032 131.63954442 -147.78307032 131.63954442 -149 135 C-151.06655192 138.12647396 -153.60852172 140.63295524 -156.28271484 143.24316406 C-158.37866325 145.38738424 -160.32893815 147.63964868 -162.30078125 149.8984375 C-175.1059209 164.17479472 -175.1059209 164.17479472 -181.07421875 165.140625 C-185.00051546 164.9272839 -188.29516645 164.19079473 -192 163 C-193.39109985 162.63612183 -193.39109985 162.63612183 -194.81030273 162.26489258 C-206.00856696 159.29730698 -216.66743188 155.03940758 -227.4375 150.8125 C-230.22985652 149.72445813 -233.02286932 148.63813405 -235.81646729 147.55328369 C-237.69535116 146.81887893 -239.57128795 146.07689194 -241.4442749 145.32757568 C-246.19733312 143.43287422 -250.94047447 141.66915623 -255.81933594 140.12402344 C-272.01590607 134.79501988 -281.84519635 125.93307112 -293.375 113.625 C-295.08921227 111.85753317 -296.80665007 110.09318881 -298.52734375 108.33203125 C-301.62520347 105.13463946 -304.71664941 101.93243879 -307.76318359 98.68603516 C-308.36665619 98.04477692 -308.97012878 97.40351868 -309.59188843 96.74282837 C-312.14283902 93.5855011 -312.47180969 90.11301642 -312.3984375 86.12890625 C-311.64373474 82.09642583 -309.29905649 79.32286508 -306 77 C-298.97918287 74.04712123 -291.36194148 72.48307292 -284 70.625 C-276.4626564 68.6992834 -268.94348165 66.76383724 -261.5 64.5 C-253.04483664 61.93218316 -244.48877656 59.77721413 -235.9296875 57.5859375 C-229.7508513 55.99630403 -223.60477409 54.35367634 -217.5 52.5 C-209.04469526 49.93259978 -200.48880264 47.77722081 -191.9296875 45.5859375 C-185.7508513 43.99630403 -179.60477409 42.35367634 -173.5 40.5 C-165.04469526 37.93259978 -156.48880264 35.77722081 -147.9296875 33.5859375 C-141.7508513 31.99630403 -135.60477409 30.35367634 -129.5 28.5 C-121.04469526 25.93259978 -112.48880264 23.77722081 -103.9296875 21.5859375 C-97.7508513 19.99630403 -91.60477409 18.35367634 -85.5 16.5 C-78.21963762 14.28936365 -70.87025389 12.3870674 -63.5 10.5 C-55.94560623 8.56452099 -48.40941295 6.60993458 -40.9375 4.375 C-40.28330078 4.18010986 -39.62910156 3.98521973 -38.95507812 3.78442383 C-36.19950252 2.961254 -33.44507744 2.13436122 -30.69189453 1.30322266 C-28.2979899 0.58587692 -25.89963051 -0.11457877 -23.5 -0.8125 C-22.42286743 -1.14145264 -22.42286743 -1.14145264 -21.32397461 -1.47705078 C-13.89546318 -3.61178942 -6.69928902 -4.46619268 0 0 Z " fill="#FDFEFE" transform="translate(374,119)"/>
</svg>
