<?xml version="1.0" encoding="UTF-8"?>
<svg version="1.1" xmlns="http://www.w3.org/2000/svg" width="456" height="456">
<path d="M0 0 C1.65071626 1.48101646 3.29168138 2.97298586 4.921875 4.4765625 C6.54349173 5.97140789 8.18490144 7.44501911 9.84375 8.8984375 C26.81151199 23.77785955 40.20363271 42.14909309 51.3203125 61.6875 C51.91320068 62.71278809 51.91320068 62.71278809 52.51806641 63.75878906 C81.94423446 115.01727534 88.51426991 178.53628355 73.1953125 235.3125 C63.31611832 269.5785878 46.74892399 301.03200543 22.53125 327.2890625 C21.03640461 328.91067923 19.56279339 330.55208894 18.109375 332.2109375 C3.22995295 349.17869949 -15.14128059 362.57082021 -34.6796875 373.6875 C-35.70497559 374.28038818 -35.70497559 374.28038818 -36.75097656 374.88525391 C-88.00946284 404.31142196 -151.52847105 410.88145741 -208.3046875 395.5625 C-242.5707753 385.68330582 -274.02419293 369.11611149 -300.28125 344.8984375 C-301.90286673 343.40359211 -303.54427644 341.92998089 -305.203125 340.4765625 C-322.17088699 325.59714045 -335.56300771 307.22590691 -346.6796875 287.6875 C-347.27257568 286.66221191 -347.27257568 286.66221191 -347.87744141 285.61621094 C-377.30360946 234.35772466 -383.87364491 170.83871645 -368.5546875 114.0625 C-358.67549332 79.7964122 -342.10829899 48.34299457 -317.890625 22.0859375 C-316.39577961 20.46432077 -314.92216839 18.82291106 -313.46875 17.1640625 C-298.58932795 0.19630051 -280.21809441 -13.19582021 -260.6796875 -24.3125 C-259.99616211 -24.70775879 -259.31263672 -25.10301758 -258.60839844 -25.51025391 C-177.69453646 -71.9608043 -70.36234953 -60.7208614 0 0 Z " fill="#2563EB" transform="translate(375.6796875,53.3125)"/>
<path d="M0 0 C3.43615111 2.12017834 5.80717883 4.09622164 7 8 C7.56641512 13.19213856 6.80198304 16.99858725 5.19140625 21.95703125 C3.07254932 28.66784256 1.28469658 35.42836354 -0.4375 42.25 C-2.34257327 49.70410582 -4.26280558 57.13812392 -6.5 64.5 C-8.71081379 71.78029552 -10.61308059 79.12972505 -12.5 86.5 C-14.55461692 94.52529856 -16.67915042 102.5033354 -19.0859375 110.4296875 C-21.07594047 117.07164547 -22.78052716 123.7837685 -24.5 130.5 C-26.55461692 138.52529856 -28.67915042 146.5033354 -31.0859375 154.4296875 C-33.07594047 161.07164547 -34.78052716 167.7837685 -36.5 174.5 C-38.55287691 182.51850212 -40.65825472 190.49667779 -43.0859375 198.40991211 C-44.42000341 202.82846403 -45.58178081 207.27241154 -46.6875 211.75390625 C-46.98720703 212.95789063 -47.28691406 214.161875 -47.59570312 215.40234375 C-48.18464627 217.78610067 -48.76207169 220.17274226 -49.32617188 222.5625 C-51.1949897 230.09933237 -53.27887106 236.86641773 -59.375 242 C-62.97472314 243.3713231 -65.16129752 243.58556479 -69 243 C-71.8744532 241.29866218 -74.4029887 239.09352216 -77 237 C-77.97831787 236.23695557 -78.95663574 235.47391113 -79.96459961 234.68774414 C-104.70809746 214.99897767 -113.95229354 190.84525273 -123.27841187 161.27325439 C-123.88836552 159.35168756 -124.52651891 157.43910637 -125.17089844 155.52880859 C-126.09842001 152.69981318 -126.6431775 149.93682285 -127.125 147 C-127.29257813 146.01 -127.46015625 145.02 -127.6328125 144 C-127.81457031 142.515 -127.81457031 142.515 -128 141 C-128.18175781 140.06285156 -128.36351562 139.12570313 -128.55078125 138.16015625 C-127.6335506 132.89746409 -123.81570853 130.03367052 -120.0625 126.4375 C-119.32708984 125.69564453 -118.59167969 124.95378906 -117.83398438 124.18945312 C-112.3328669 118.79403398 -106.48292629 113.86210121 -98.75 112.375 C-94.89066834 113.25212083 -93.57050865 115.01297375 -91 118 C-89.7475042 120.58255442 -88.71360253 123.00393503 -87.75 125.6875 C-87.46697021 126.44337402 -87.18394043 127.19924805 -86.89233398 127.97802734 C-82.72237038 139.24306957 -78.86997082 150.62923561 -75 162 C-72.525 161.01 -72.525 161.01 -70 160 C-69.9721976 158.37510429 -69.9532554 156.75005717 -69.9375 155.125 C-69.9271875 154.12210938 -69.916875 153.11921875 -69.90625 152.0859375 C-69.99404837 149.19590797 -70.41396139 146.58583416 -70.9375 143.75 C-71.32373116 140.6353923 -71.36298745 139.50457156 -69.5078125 136.92578125 C-67.5625 135.0625 -67.5625 135.0625 -65.56640625 133.47265625 C-65.04949219 132.98667969 -64.53257812 132.50070313 -64 132 C-64 131.01 -64 130.02 -64 129 C-66.76276177 129.52268466 -69.3260876 130.10869587 -72 131 C-74.99438404 118.81713466 -74.99438404 118.81713466 -72.57421875 114.39453125 C-70.625 112.3125 -70.625 112.3125 -68.6015625 110.55078125 C-68.07304687 110.03902344 -67.54453125 109.52726562 -67 109 C-67 108.01 -67 107.02 -67 106 C-69.93703384 106.62936439 -72.33788628 107.62420173 -75 109 C-75.52678363 106.64225966 -76.0100538 104.28761045 -76.44140625 101.91015625 C-76.95097045 99.01595379 -76.95097045 99.01595379 -77.77734375 96.30859375 C-78.47409902 93.18002598 -78.67754593 91.15037281 -78 88 C-75.34805116 84.61510047 -72.42759244 81.86050726 -69.23828125 78.99609375 C-64.45147502 74.69484453 -58.37484367 68.88624684 -57.734375 62.24609375 C-57.76113216 60.03247816 -57.76113216 60.03247816 -59 59 C-64.46999464 58.76723427 -66.90932526 60.4698044 -70.9375 64.125 C-72.62976649 65.74503561 -74.31737281 67.36995491 -76 69 C-77.47046699 70.301562 -78.94882591 71.59430244 -80.4375 72.875 C-82.24082962 74.43361892 -83.90486065 75.88707036 -85.44140625 77.7109375 C-87 79 -87 79 -89.09375 79.109375 C-90.28484375 78.93148437 -90.28484375 78.93148437 -91.5 78.75 C-92.37398437 78.63269531 -93.24796875 78.51539063 -94.1484375 78.39453125 C-95.08945313 78.26433594 -96.03046875 78.13414062 -97 78 C-99.04068482 77.80209983 -101.08238032 77.61431592 -103.125 77.4375 C-104.52105469 77.31181641 -104.52105469 77.31181641 -105.9453125 77.18359375 C-106.62335938 77.12300781 -107.30140625 77.06242187 -108 77 C-107.67257813 76.39671875 -107.34515625 75.7934375 -107.0078125 75.171875 C-105.82576973 72.62452701 -105.84578447 70.77587962 -106 68 C-107.83468832 68.05563651 -107.83468832 68.05563651 -110 69 C-110.763125 70.010625 -111.52625 71.02125 -112.3125 72.0625 C-115 75 -115 75 -118.375 75.5 C-122.12483956 74.98278075 -125.40866346 74.17268132 -129 73 C-128.67 72.401875 -128.34 71.80375 -128 71.1875 C-126.79212012 68.94613529 -126.79212012 68.94613529 -127 66 C-129.28836222 65.58013054 -129.28836222 65.58013054 -132 66 C-132.68707031 66.83273438 -133.37414062 67.66546875 -134.08203125 68.5234375 C-137.72125485 71.61214937 -139.37067214 71.38802975 -143.94921875 71.14648438 C-145.65006191 71.00713505 -147.35059147 70.86390365 -149.05078125 70.71679688 C-153.69415465 70.35879063 -153.69415465 70.35879063 -157.70703125 72.34033203 C-159.27894571 74.15398149 -159.27894571 74.15398149 -161 77 C-160.28175049 77.12818115 -159.56350098 77.2563623 -158.82348633 77.38842773 C-146.54014024 80.0490228 -134.09068398 85.70217064 -122.8125 91.1875 C-122.18496826 91.48342041 -121.55743652 91.77934082 -120.91088867 92.08422852 C-116.38205831 94.38213263 -113.70863229 96.77663742 -111 101 C-110.8990929 107.13204655 -114.24812198 109.99087265 -118.265625 114.1875 C-119.16796875 115.115625 -120.0703125 116.04375 -121 117 C-121.99728568 118.10191459 -122.99199945 119.20616133 -123.984375 120.3125 C-125.00909917 121.41788948 -126.03512417 122.5220746 -127.0625 123.625 C-127.76693237 124.42478271 -127.76693237 124.42478271 -128.4855957 125.24072266 C-131.21893739 128.09164253 -132.79788762 128.97513111 -136.74609375 129.4609375 C-144.84688717 128.8737935 -152.51146941 126.69698969 -160.05859375 123.8046875 C-161.30153954 123.33798141 -161.30153954 123.33798141 -162.56959534 122.86184692 C-164.31461946 122.20483764 -166.05825619 121.54413247 -167.80053711 120.87988281 C-170.39704473 119.89041653 -172.99781149 118.91295823 -175.59960938 117.9375 C-179.89885617 116.32028712 -184.17889568 114.65752402 -188.45507812 112.98040771 C-190.97216952 112.01072144 -193.5036791 111.09145247 -196.04101562 110.17626953 C-207.65761568 105.8414589 -215.27314271 100.19585686 -223.625 91.125 C-224.73174842 89.97143261 -225.84112293 88.8203789 -226.953125 87.671875 C-236.39299451 77.84532975 -236.39299451 77.84532975 -236.2734375 68.69921875 C-235.89359077 64.94958891 -234.90603456 63.38443861 -232 61 C-225.66312183 57.85329232 -218.96587996 56.32669258 -212.125 54.625 C-204.54450985 52.70267475 -196.98136693 50.78060098 -189.5 48.5 C-181.04503762 45.93159364 -172.48873907 43.77720453 -163.9296875 41.5859375 C-157.7508513 39.99630403 -151.60477409 38.35367634 -145.5 36.5 C-137.04469526 33.93259978 -128.48880264 31.77722081 -119.9296875 29.5859375 C-113.7508513 27.99630403 -107.60477409 26.35367634 -101.5 24.5 C-93.04469526 21.93259978 -84.48880264 19.77722081 -75.9296875 17.5859375 C-69.09993606 15.82884261 -62.32573387 13.96648827 -55.57910156 11.91625977 C-47.74306128 9.56716863 -39.80743984 7.58807543 -31.87695312 5.5859375 C-25.12159464 3.86610082 -18.48572997 1.94286233 -11.86621094 -0.24584961 C-7.70410105 -1.34097375 -4.09135832 -1.34100889 0 0 Z " fill="#FDFDFE" transform="translate(322,68)"/>
<path d="M0 0 C3.50625 -0.061875 7.0125 -0.12375 10.625 -0.1875 C11.71893066 -0.21481201 12.81286133 -0.24212402 13.93994141 -0.27026367 C19.37798479 -0.31665314 23.34183219 -0.14781485 28 3 C32.12802479 7.4627295 33.3086435 10.82474206 33.21875 16.9375 C32.77696084 21.10294066 31.06208723 24.03748345 28 26.8125 C23.84777377 29.27788432 19.98112213 29.11916862 15.3125 29.0625 C14.61060547 29.05798828 13.90871094 29.05347656 13.18554688 29.04882812 C11.45699462 29.03706927 9.72848635 29.01913454 8 29 C8 33.62 8 38.24 8 43 C5.36 43 2.72 43 0 43 C0 28.81 0 14.62 0 0 Z " fill="#F6F9FE" transform="translate(85,333)"/>
<path d="M0 0 C2.41869578 1.1589584 4.12322096 2.12322096 6 4 C6.33 3.01 6.66 2.02 7 1 C9.31 1 11.62 1 14 1 C14 11.56 14 22.12 14 33 C11.69 33 9.38 33 7 33 C6.67 32.01 6.34 31.02 6 30 C5.195625 30.66 4.39125 31.32 3.5625 32 C-0.48151672 34.6610393 -4.29905652 34.9401887 -9 34 C-12.87808464 32.24402718 -15.34927422 29.83964617 -17.9375 26.5 C-19.95555965 19.85227409 -20.28362273 12.81409599 -17.375 6.4375 C-11.97943762 0.89994914 -7.66979506 -1.21473734 0 0 Z " fill="#F9FBFE" transform="translate(154,343)"/>
<path d="M0 0 C3.91165379 2.22546516 6.51780025 4.40365351 9.01171875 8.14453125 C9.01171875 9.46453125 9.01171875 10.78453125 9.01171875 12.14453125 C6.14900325 12.38713426 3.81852486 12.58195558 1.01171875 12.14453125 C-1.86328125 9.70703125 -1.86328125 9.70703125 -3.98828125 7.14453125 C-7.95555475 5.1608945 -12.67510665 5.59701967 -16.98828125 6.14453125 C-20.9423103 8.08658874 -23.32624261 11.10922122 -24.98828125 15.14453125 C-25.74333244 20.62600678 -25.3003107 24.59049076 -21.98828125 29.14453125 C-21.98828125 29.80453125 -21.98828125 30.46453125 -21.98828125 31.14453125 C-16.37979569 33.72196028 -11.06894188 33.8351326 -4.98828125 33.14453125 C-0.89600418 30.85285609 -0.11569516 29.39935906 2.01171875 25.14453125 C-2.60828125 25.14453125 -7.22828125 25.14453125 -11.98828125 25.14453125 C-11.98828125 22.83453125 -11.98828125 20.52453125 -11.98828125 18.14453125 C-4.39828125 18.14453125 3.19171875 18.14453125 11.01171875 18.14453125 C9.69760749 31.28564387 9.69760749 31.28564387 4.01171875 37.14453125 C-1.47228274 41.18438088 -6.87816297 42.89970234 -13.67578125 42.49609375 C-20.35730377 41.48032174 -25.48940956 38.02702766 -29.98828125 33.14453125 C-34.07612963 26.81495957 -33.99250179 19.47285138 -32.98828125 12.14453125 C-30.33591733 5.35331374 -25.4607259 1.2358481 -18.98828125 -1.85546875 C-12.18470505 -4.12332748 -6.34560252 -3.13404103 0 0 Z " fill="#F4F7FE" transform="translate(244.98828125,334.85546875)"/>
<path d="M0 0 C4.336141 2.21459562 6.89070933 4.94892877 8.9453125 9.3046875 C8.9453125 12.2746875 8.9453125 15.2446875 8.9453125 18.3046875 C1.0253125 18.6346875 -6.8946875 18.9646875 -15.0546875 19.3046875 C-13.28617714 22.48542915 -13.28617714 22.48542915 -11.0546875 25.3046875 C-6.26228807 25.81063839 -6.26228807 25.81063839 -2.1171875 23.8046875 C1.11469213 21.45422959 4.01965398 22.10840457 7.9453125 22.3046875 C7.47057187 26.5773532 5.10196282 28.5784895 1.9453125 31.3046875 C-2.39727975 33.83786632 -7.15473121 33.99848662 -12.0546875 33.3046875 C-15.3046875 31.6796875 -15.3046875 31.6796875 -18.0546875 29.3046875 C-19.0034375 28.5209375 -19.9521875 27.7371875 -20.9296875 26.9296875 C-24.2239881 22.77183238 -23.67096402 17.64910048 -23.46875 12.59375 C-22.94390397 8.42468999 -22.07819138 6.25066564 -19.0546875 3.3046875 C-13.23132063 -1.12107132 -7.08748569 -2.39842672 0 0 Z " fill="#F7F9FE" transform="translate(370.0546875,343.6953125)"/>
<path d="M0 0 C4.336141 2.21459562 6.89070933 4.94892877 8.9453125 9.3046875 C8.9453125 12.2746875 8.9453125 15.2446875 8.9453125 18.3046875 C1.0253125 18.6346875 -6.8946875 18.9646875 -15.0546875 19.3046875 C-13.28617714 22.48542915 -13.28617714 22.48542915 -11.0546875 25.3046875 C-6.26228807 25.81063839 -6.26228807 25.81063839 -2.1171875 23.8046875 C1.11469213 21.45422959 4.01965398 22.10840457 7.9453125 22.3046875 C7.47057187 26.5773532 5.10196282 28.5784895 1.9453125 31.3046875 C-2.39727975 33.83786632 -7.15473121 33.99848662 -12.0546875 33.3046875 C-15.3046875 31.6796875 -15.3046875 31.6796875 -18.0546875 29.3046875 C-19.0034375 28.5209375 -19.9521875 27.7371875 -20.9296875 26.9296875 C-24.2239881 22.77183238 -23.67096402 17.64910048 -23.46875 12.59375 C-22.94390397 8.42468999 -22.07819138 6.25066564 -19.0546875 3.3046875 C-13.23132063 -1.12107132 -7.08748569 -2.39842672 0 0 Z " fill="#F7F9FE" transform="translate(282.0546875,343.6953125)"/>
<path d="M0 0 C2.64 0 5.28 0 8 0 C8.33 0.99 8.66 1.98 9 3 C9.639375 2.505 10.27875 2.01 10.9375 1.5 C15.05347873 -0.51598958 18.49154992 -0.60659147 23 0 C26.73698169 1.62477465 28.84763317 3.55621307 31 7 C32.01973129 10.05919388 32.11533602 12.12418025 32.09765625 15.32421875 C32.09443359 16.35224609 32.09121094 17.38027344 32.08789062 18.43945312 C32.07532227 20.04723633 32.07532227 20.04723633 32.0625 21.6875 C32.05798828 22.77095703 32.05347656 23.85441406 32.04882812 24.97070312 C32.03703743 27.64719085 32.02058063 30.32356777 32 33 C29.36 33 26.72 33 24 33 C23.97494385 32.34926514 23.9498877 31.69853027 23.92407227 31.02807617 C23.80806298 28.08101954 23.68535885 25.1342787 23.5625 22.1875 C23.52318359 21.16333984 23.48386719 20.13917969 23.44335938 19.08398438 C23.40146484 18.10107422 23.35957031 17.11816406 23.31640625 16.10546875 C23.27974854 15.19949951 23.24309082 14.29353027 23.20532227 13.36010742 C23.0791795 10.84951218 23.0791795 10.84951218 22 8 C20.58603027 7.86404137 19.16823316 7.76756155 17.75 7.6875 C16.96109375 7.62949219 16.1721875 7.57148438 15.359375 7.51171875 C12.830477 7.84185256 12.830477 7.84185256 10.75 9.875 C8.26336078 14.31542718 8.32794063 18.29950046 8.25 23.3125 C8.22035156 24.24384766 8.19070312 25.17519531 8.16015625 26.13476562 C8.08974096 28.42326265 8.03690786 30.71075809 8 33 C5.36 33 2.72 33 0 33 C0 22.11 0 11.22 0 0 Z " fill="#F2F5FD" transform="translate(175,343)"/>
<path d="M0 0 C3.22344672 2.4340312 4.7746971 4.66204565 7 8 C7.22705078 10.63549805 7.22705078 10.63549805 7.1953125 13.76171875 C7.18886719 14.87998047 7.18242187 15.99824219 7.17578125 17.15039062 C7.15902344 18.31763672 7.14226562 19.48488281 7.125 20.6875 C7.11597656 21.86634766 7.10695313 23.04519531 7.09765625 24.25976562 C7.07406423 27.17338026 7.0411454 30.08658892 7 33 C4.36 33 1.72 33 -1 33 C-1.01458252 32.31373535 -1.02916504 31.6274707 -1.04418945 30.92041016 C-1.11850151 27.82136099 -1.21521582 24.72340945 -1.3125 21.625 C-1.33505859 20.54476563 -1.35761719 19.46453125 -1.38085938 18.3515625 C-1.4340332 16.8046875 -1.4340332 16.8046875 -1.48828125 15.2265625 C-1.51446533 14.27346191 -1.54064941 13.32036133 -1.56762695 12.33837891 C-1.71031006 11.56671387 -1.85299316 10.79504883 -2 10 C-5.49124017 7.67250655 -6.89222251 7.49700684 -11 8 C-13.35807168 9.29290639 -13.35807168 9.29290639 -15 12 C-15.64096402 15.57526462 -15.69689161 19.12414509 -15.75 22.75 C-15.77964844 23.73355469 -15.80929687 24.71710938 -15.83984375 25.73046875 C-15.91042411 28.15372776 -15.96317701 30.57603154 -16 33 C-18.64 33 -21.28 33 -24 33 C-24 22.44 -24 11.88 -24 1 C-21.69 1 -19.38 1 -17 1 C-16.67 1.99 -16.34 2.98 -16 4 C-15.401875 3.34 -14.80375 2.68 -14.1875 2 C-9.56450962 -0.90069984 -5.32446311 -0.94479195 0 0 Z " fill="#F5F8FE" transform="translate(320,343)"/>
<path d="M0 0 C2.64 0 5.28 0 8 0 C8 14.52 8 29.04 8 44 C5.36 44 2.72 44 0 44 C0 29.48 0 14.96 0 0 Z " fill="#F4F7FE" transform="translate(122,332)"/>
<path d="M0 0 C2.66346536 2.1437648 3.7026198 3.58458461 4.40625 6.93359375 C4.7206953 11.09213286 4.3257515 12.59709683 1.625 15.9375 C-2.14000049 18.89571467 -4.18897558 19.56600287 -9 19 C-11.8125 16.5625 -11.8125 16.5625 -14 14 C-14.33 13.67 -14.66 13.34 -15 13 C-15.58968059 5.92383292 -15.58968059 5.92383292 -13.125 2.0625 C-9.05289345 -1.88983871 -5.28514995 -1.34240931 0 0 Z " fill="#2D68EB" transform="translate(157,351)"/>
<path d="M0 0 C2.64 0 5.28 0 8 0 C8 10.89 8 21.78 8 33 C5.36 33 2.72 33 0 33 C0 22.11 0 11.22 0 0 Z " fill="#F0F4FD" transform="translate(334,343)"/>
<path d="M0 0 C10.9947644 -0.48328635 10.9947644 -0.48328635 15.25 1.5625 C17.67547804 4.94084442 17.65373541 6.932313 17 11 C15.38671875 13.203125 15.38671875 13.203125 13 15 C8.60786271 15.53045136 4.44112074 15.17764483 0 15 C0 10.05 0 5.1 0 0 Z " fill="#2D69EB" transform="translate(93,340)"/>
<path d="M0 0 C2.5 1.3125 2.5 1.3125 4 3 C4 3.99 4 4.98 4 6 C-1.28 6 -6.56 6 -12 6 C-9.31122447 -0.72193881 -6.84431339 -0.77099973 0 0 Z " fill="#2A67EB" transform="translate(367,350)"/>
<path d="M0 0 C2.5 1.3125 2.5 1.3125 4 3 C4 3.99 4 4.98 4 6 C-1.28 6 -6.56 6 -12 6 C-9.31122447 -0.72193881 -6.84431339 -0.77099973 0 0 Z " fill="#2A67EB" transform="translate(279,350)"/>
<path d="M0 0 C2.5 0.25 2.5 0.25 4.5 2.25 C4.75 4.75 4.75 4.75 4.5 7.25 C3.84 7.91 3.18 8.57 2.5 9.25 C-0.625 8.875 -0.625 8.875 -3.5 8.25 C-4.125 5.375 -4.125 5.375 -4.5 2.25 C-2.5 0.25 -2.5 0.25 0 0 Z " fill="#F0F4FD" transform="translate(337.5,329.75)"/>
</svg>
